<?xml version="1.0" encoding="UTF-8" standalone="no"?>
<!DOCTYPE svg PUBLIC "-//W3C//DTD SVG 1.1//EN"
 "http://www.w3.org/Graphics/SVG/1.1/DTD/svg11.dtd">
<!-- Generated by graphviz version 2.50.0 (20211204.2007)
 -->
<!-- Title: wartremover Pages: 1 -->
<svg width="469pt" height="119pt"
 viewBox="0.00 0.00 469.00 118.50" xmlns="http://www.w3.org/2000/svg" xmlns:xlink="http://www.w3.org/1999/xlink">
<g id="graph0" class="graph" transform="scale(1 1) rotate(0) translate(4 114.5)">
<title>wartremover</title>
<polygon fill="white" stroke="transparent" points="-4,4 -4,-114.5 465,-114.5 465,4 -4,4"/>
<!-- compiler -->
<g id="node1" class="node">
<title>compiler</title>
<polygon fill="lightgrey" stroke="black" points="12,-64.5 12,-102.5 80,-102.5 80,-64.5 12,-64.5"/>
<text text-anchor="start" x="26" y="-87.3" font-family="Times,serif" font-size="14.00">Scala 3</text>
<text text-anchor="start" x="20" y="-72.3" font-family="Times,serif" font-size="14.00">Compiler</text>
</g>
<!-- plugin -->
<g id="node2" class="node">
<title>plugin</title>
<polygon fill="lightgrey" stroke="black" points="128,-57 128,-110 221,-110 221,-57 128,-57"/>
<text text-anchor="start" x="136" y="-94.8" font-family="Times,serif" font-size="14.00">WartRemover</text>
<text text-anchor="start" x="148.5" y="-79.8" font-family="Times,serif" font-size="14.00">Compiler</text>
<text text-anchor="start" x="156.5" y="-64.8" font-family="Times,serif" font-size="14.00">Plugin</text>
</g>
<!-- compiler&#45;&gt;plugin -->
<g id="edge1" class="edge">
<title>compiler&#45;&gt;plugin</title>
<path fill="none" stroke="black" d="M80.24,-83.5C91.67,-83.5 104.81,-83.5 117.55,-83.5"/>
<polygon fill="black" stroke="black" points="117.65,-87 127.65,-83.5 117.65,-80 117.65,-87"/>
</g>
<!-- traverser -->
<g id="node5" class="node">
<title>traverser</title>
<polygon fill="lightgrey" stroke="black" points="257,-32.5 257,-70.5 325,-70.5 325,-32.5 257,-32.5"/>
<text text-anchor="start" x="265" y="-55.3" font-family="Times,serif" font-size="14.00">Traverser</text>
<text text-anchor="start" x="266.5" y="-40.3" font-family="Times,serif" font-size="14.00">Universe</text>
</g>
<!-- plugin&#45;&gt;traverser -->
<g id="edge2" class="edge">
<title>plugin&#45;&gt;traverser</title>
<path fill="none" stroke="black" d="M221.08,-70.76C229.69,-68.36 238.66,-65.85 247.18,-63.47"/>
<polygon fill="black" stroke="black" points="248.23,-66.81 256.92,-60.74 246.35,-60.07 248.23,-66.81"/>
</g>
<!-- test -->
<g id="node3" class="node">
<title>test</title>
<polygon fill="lightgrey" stroke="black" points="0,-0.5 0,-38.5 92,-38.5 92,-0.5 0,-0.5"/>
<text text-anchor="start" x="23" y="-23.3" font-family="Times,serif" font-size="14.00">scalatest</text>
<text text-anchor="start" x="8" y="-8.3" font-family="Times,serif" font-size="14.00">の普通のtest</text>
</g>
<!-- macro -->
<g id="node4" class="node">
<title>macro</title>
<polygon fill="lightgrey" stroke="black" points="135,-1.5 135,-37.5 214,-37.5 214,-1.5 135,-1.5"/>
<text text-anchor="start" x="143" y="-15.8" font-family="Times,serif" font-size="14.00">Test Macro</text>
</g>
<!-- test&#45;&gt;macro -->
<g id="edge3" class="edge">
<title>test&#45;&gt;macro</title>
<path fill="none" stroke="black" d="M92.31,-19.5C102.84,-19.5 114.1,-19.5 124.77,-19.5"/>
<polygon fill="black" stroke="black" points="124.78,-23 134.78,-19.5 124.77,-16 124.78,-23"/>
</g>
<!-- macro&#45;&gt;traverser -->
<g id="edge4" class="edge">
<title>macro&#45;&gt;traverser</title>
<path fill="none" stroke="black" d="M214.26,-30.33C224.69,-33.25 236.03,-36.42 246.68,-39.39"/>
<polygon fill="black" stroke="black" points="246.06,-42.85 256.63,-42.17 247.94,-36.11 246.06,-42.85"/>
</g>
<!-- rules&#45;1 -->
<g id="node6" class="node">
<title>rules&#45;1</title>
<polygon fill="lightgrey" stroke="black" points="361,-61.5 361,-97.5 461,-97.5 461,-61.5 361,-61.5"/>
<text text-anchor="start" x="369" y="-75.8" font-family="Times,serif" font-size="14.00">組み込みWart</text>
</g>
<!-- traverser&#45;&gt;rules&#45;1 -->
<g id="edge5" class="edge">
<title>traverser&#45;&gt;rules&#45;1</title>
<path fill="none" stroke="black" d="M325.18,-59.37C333.21,-61.28 342.02,-63.37 350.85,-65.46"/>
<polygon fill="black" stroke="black" points="350.23,-68.91 360.77,-67.82 351.84,-62.1 350.23,-68.91"/>
</g>
<!-- rules&#45;2 -->
<g id="node7" class="node">
<title>rules&#45;2</title>
<polygon fill="lightgrey" stroke="black" points="375.5,-6.5 375.5,-42.5 446.5,-42.5 446.5,-6.5 375.5,-6.5"/>
<text text-anchor="start" x="383.5" y="-20.8" font-family="Times,serif" font-size="14.00">独自Wart</text>
</g>
<!-- traverser&#45;&gt;rules&#45;2 -->
<g id="edge6" class="edge">
<title>traverser&#45;&gt;rules&#45;2</title>
<path fill="none" stroke="black" d="M325.18,-43.91C337.68,-41.05 352.09,-37.75 365.46,-34.69"/>
<polygon fill="black" stroke="black" points="366.45,-38.05 375.42,-32.41 364.89,-31.23 366.45,-38.05"/>
</g>
</g>
</svg>
